<svg width="411" height="3759" viewBox="0 0 411 3759" fill="none" xmlns="http://www.w3.org/2000/svg">
<path d="M472.764 -3H-42.182L-130.171 532.005C-130.171 532.005 -205.673 854.349 -107.952 892.822C144.872 992.358 516 650.682 516 650.682L472.764 -3Z" fill="#FED095"/>
<path d="M713 1690.36C713 1994.03 430.374 2102 161.416 2102C-107.542 2102 -125 1994.03 -125 1690.36C-125 1386.68 -107.542 1128 161.416 1128C430.374 1128 713 1386.68 713 1690.36Z" fill="#F99994"/>
<rect x="-143" y="2614" width="993" height="1145" fill="#202041"/>
<path d="M256.262 2607.17C492.262 2553.17 583.365 2577.9 701.667 2634.48C888.584 2685.29 873.094 3157.46 693.047 2822.73C513 2488 488.61 2878.77 364 2899.5C239.39 2920.23 20.2614 2661.17 256.262 2607.17Z" fill="#FAA595"/>
<path d="M97.5038 2758.26C-157.159 2722.66 -210.285 2398.2 -174.679 2143.54C-185.304 1889.13 -165.777 2041.06 -71.9997 2016C28.6793 1989.09 152.5 2070 283.5 2060C477.935 2045.16 770.299 1789.04 642.118 2301.93C606.512 2556.59 352.167 2793.87 97.5038 2758.26Z" fill="#94B0F9"/>
<path d="M-146 3611.5C-455.514 3594.12 -435.689 3639.65 -418.309 3330.14C-475.199 2875.78 -239.292 3086.56 1.05314 3179.8C246.333 3274.95 681.669 2809.98 578.821 3438.97C561.442 3748.49 163.514 3628.88 -146 3611.5Z" fill="#FECC90"/>
<path d="M471.5 602C462.376 675 251.228 748.217 134 712C-53.4645 654.084 -17.7258 786.059 -7.12087 773.414L-15.5 1351.5C27.9688 1398.69 134.664 1387.22 318.219 1329.24C501.774 1271.26 737.412 1310.27 726.511 1304.25L665.376 374C665.376 374 480.624 529 471.5 602Z" fill="#F9A594"/>
</svg>
