<svg width="123" height="190" viewBox="0 0 123 190" fill="none" xmlns="http://www.w3.org/2000/svg">
<g id="cv">
<rect id="down" x="62" y="79" width="63" height="8" rx="4" transform="rotate(30 62 79)" fill="#202041"/>
<path id="arrow" d="M90.0307 86.4283C90.2673 88.0682 91.7884 89.2058 93.4283 88.9693L120.152 85.1147C121.792 84.8782 122.929 83.357 122.693 81.7171C122.456 80.0773 120.935 78.9396 119.295 79.1762L95.541 82.6024L92.1147 58.8483C91.8782 57.2084 90.357 56.0708 88.7171 56.3073C87.0773 56.5438 85.9396 58.065 86.1762 59.7048L90.0307 86.4283ZM108.464 1.74041C113.997 23.466 109.591 44.0472 103.693 59.3257C100.75 66.9495 97.4548 73.1993 94.9003 77.5359C93.624 79.7026 92.5352 81.387 91.7715 82.5217C91.3898 83.0889 91.0895 83.5183 90.8881 83.8015C90.7873 83.9431 90.7113 84.048 90.6622 84.1154C90.6376 84.149 90.6197 84.1733 90.6089 84.188C90.6035 84.1953 90.5998 84.2003 90.5979 84.2028C90.5969 84.2041 90.5964 84.2048 90.5964 84.2048C90.5963 84.2049 90.5966 84.2045 90.5966 84.2045C90.597 84.204 90.5976 84.2033 93 86C95.4024 87.7967 95.4032 87.7957 95.4041 87.7946C95.4045 87.794 95.4055 87.7927 95.4064 87.7915C95.4081 87.7891 95.4103 87.7862 95.413 87.7826C95.4183 87.7754 95.4254 87.7658 95.4343 87.7538C95.452 87.7298 95.4768 87.6961 95.5084 87.6529C95.5715 87.5664 95.6617 87.4417 95.7769 87.2799C96.0071 86.9564 96.337 86.4842 96.7491 85.8718C97.5732 84.6474 98.727 82.8612 100.07 80.5812C102.754 76.0245 106.205 69.4773 109.29 61.4866C115.448 45.5359 120.227 23.617 114.279 0.259589L108.464 1.74041Z" fill="#202041"/>
<path id="cv_2" d="M50.4266 107.315C47.2692 105.492 44.137 105.272 41.0299 106.653C37.9333 108.017 35.161 110.819 32.7131 115.058C27.6193 123.881 28.3832 130.204 35.0047 134.027C37.7832 135.631 41.5491 136.879 46.3024 137.771L42.2399 144.807C38.2111 144.286 34.194 142.868 30.1886 140.556C24.4332 137.233 21.0361 132.95 19.9974 127.708C18.9691 122.447 20.3403 116.551 24.1112 110.02C26.4862 105.906 29.313 102.739 32.5918 100.519C35.881 98.2799 39.3978 97.1469 43.1422 97.1197C46.9151 97.0848 50.687 98.1559 54.4578 100.333C58.3008 102.552 61.6254 105.71 64.4315 109.808L57.7877 115.065C56.7145 113.508 55.5802 112.035 54.3848 110.647C53.1893 109.259 51.87 108.149 50.4266 107.315ZM95.2388 124.636L103.71 129.526L67.4154 161.327L58.2681 156.046L67.6884 108.729L76.1592 113.62L70.0079 141.462C69.6208 143.091 69.1073 144.959 68.4674 147.068C67.8559 149.168 67.396 150.611 67.0876 151.395C68.2444 149.85 70.598 147.336 74.1486 143.853L95.2388 124.636Z" fill="#202041"/>
</g>
</svg>
