<svg width="251" height="268" viewBox="0 0 251 268" fill="none" xmlns="http://www.w3.org/2000/svg">
<g id="Pom">
<path id="outline" d="M225.743 137.399C225.752 137.366 225.759 137.334 225.767 137.303C232.732 137.767 238.476 133.446 242.538 128.176C246.776 122.679 249.398 115.889 249.836 111.553C250.259 107.368 249.913 103.947 248.204 101.484C246.461 98.9714 243.483 97.7039 239.265 97.3987C234.898 97.0826 232.204 98.5902 230.615 100.283C229.836 101.112 229.345 101.961 229.048 102.606C228.899 102.928 228.797 103.203 228.731 103.402C228.698 103.501 228.674 103.582 228.657 103.642C228.649 103.671 228.642 103.696 228.638 103.714L228.632 103.737L228.63 103.746L228.629 103.749L228.629 103.75L228.629 103.75L227.065 110.36C230.552 83.2158 216.98 62.0655 202.402 47.6455C194.844 40.1686 186.986 34.4694 181.022 30.6401C178.038 28.7246 175.524 27.2747 173.754 26.3023C172.869 25.8161 172.169 25.4491 171.689 25.2029C171.623 25.1692 171.562 25.1379 171.505 25.1088L171.449 11.4699C171.45 11.4644 171.451 11.4589 171.452 11.4531C171.463 11.3799 171.476 11.2797 171.487 11.1562C171.509 10.9096 171.522 10.5668 171.494 10.1585C171.437 9.34309 171.212 8.2459 170.532 7.13771C169.137 4.86269 166.055 2.87812 159.726 2.75379C153.369 2.62891 150.12 4.61508 148.531 6.91051C147.756 8.02957 147.426 9.15541 147.288 9.99911C147.219 10.4217 147.198 10.7782 147.194 11.0349C147.193 11.1547 147.195 11.2534 147.198 11.3277L146.127 17.3305C139.357 15.9105 131.786 15.6754 125.837 15.8002C122.704 15.866 120.006 16.032 118.09 16.1818C117.3 16.2434 116.643 16.3024 116.143 16.3505V9.42478V9.3128L116.118 9.20359L115.143 9.42478C116.118 9.20359 116.118 9.203 116.118 9.20238L116.117 9.20103L116.117 9.19787L116.115 9.1898L116.109 9.16671C116.105 9.14829 116.098 9.12384 116.09 9.09376C116.074 9.03361 116.051 8.95082 116.018 8.84847C115.954 8.64395 115.854 8.36024 115.708 8.02247C115.416 7.34828 114.936 6.44928 114.178 5.53409C112.64 3.67997 110.006 1.82164 105.668 1.57015C101.263 1.3148 98.2006 3.26008 96.2701 5.23991C95.3096 6.22503 94.6234 7.22273 94.1766 7.97428C93.9526 8.35105 93.7871 8.66879 93.676 8.89616C93.6204 9.00993 93.5783 9.10134 93.5492 9.16648C93.5346 9.19907 93.5233 9.22511 93.5152 9.24413L93.5053 9.26734L93.5022 9.27488L93.5011 9.27762L93.5006 9.27873C93.5004 9.27921 93.5002 9.27967 94.4254 9.65912L93.5002 9.27967L93.4485 9.40574L93.4324 9.54104L91.8687 22.6905C55.8532 39.3179 39.9118 61.8417 33.0155 80.3223C29.5565 89.5918 28.3822 97.8185 28.0737 103.735C27.9194 106.694 27.9815 109.077 28.0831 110.726C28.1182 111.297 28.1581 111.78 28.1954 112.169L27.367 112.171C27.363 112.141 27.3589 112.111 27.3547 112.08C27.2696 111.456 27.1327 110.572 26.9246 109.523C26.5095 107.431 25.8057 104.654 24.6499 101.969C23.4995 99.2956 21.8644 96.6255 19.5391 94.8413C17.1691 93.0228 14.1434 92.175 10.3949 93.0785C6.72702 93.9625 4.33816 95.7372 2.88723 97.9709C1.45233 100.18 1 102.737 1 105.094C1 107.455 1.45312 109.686 1.89838 111.313C2.12194 112.13 2.34582 112.803 2.51486 113.274C2.59945 113.51 2.67048 113.696 2.72113 113.825C2.73237 113.853 2.74261 113.879 2.75177 113.902C3.55344 119.791 5.57083 124.1 8.19771 127.231C10.8405 130.38 14.0561 132.286 17.1466 133.426C20.232 134.564 23.2057 134.945 25.4007 135.044C26.5004 135.093 27.411 135.072 28.0507 135.038C28.1736 135.032 28.2866 135.025 28.3891 135.018C28.5114 135.25 28.6662 135.551 28.8456 135.911C29.3122 136.85 29.9436 138.193 30.5983 139.805C31.9127 143.041 33.2999 147.308 33.6679 151.539C33.8706 153.87 34.8409 157.112 36.187 160.815C37.5427 164.545 39.318 168.841 41.1872 173.312C41.4309 173.895 41.6761 174.481 41.9222 175.069C45.4669 183.535 49.1941 192.438 51.084 199.413C53.2073 207.25 58.4454 212.63 63.0882 216.031C65.2968 217.649 67.3862 218.831 68.9734 219.627C63.194 221.018 58.919 223.417 55.7836 226.347C52.114 229.775 50.0631 233.877 48.9572 237.793C47.8529 241.704 47.6853 245.447 47.79 248.204C47.8424 249.585 47.9635 250.725 48.0722 251.524C48.1266 251.923 48.178 252.238 48.2163 252.455C48.2354 252.564 48.2513 252.648 48.2627 252.707C48.2646 252.717 48.2664 252.726 48.2681 252.734C48.2716 252.773 48.2768 252.824 48.2845 252.885C48.3013 253.018 48.33 253.203 48.3785 253.43C48.4756 253.885 48.6527 254.514 48.9744 255.252C49.6203 256.734 50.8412 258.636 53.1325 260.446C57.7109 264.063 66.4272 267.214 83.043 266.168C91.4583 265.639 97.6314 263.178 102.136 259.727C106.636 256.279 109.409 251.892 111.106 247.602C112.801 243.318 113.43 239.115 113.638 235.992C113.743 234.428 113.742 233.128 113.714 232.215C113.711 232.117 113.708 232.024 113.705 231.935L137.047 233.614C137.015 233.662 136.982 233.712 136.949 233.762C136.248 234.838 135.407 236.407 134.845 238.385C133.712 242.381 133.752 247.949 138.151 254.348C140.453 257.697 144.988 260.19 150.316 262.001C155.688 263.826 162.058 265.019 168.258 265.645C174.46 266.27 180.537 266.332 185.336 265.874C187.733 265.645 189.843 265.284 191.502 264.785C193.099 264.304 194.502 263.631 195.208 262.625C201.985 252.966 197.542 242.686 191.818 235.137C188.931 231.33 185.648 228.111 183.094 225.85C181.815 224.717 180.715 223.82 179.932 223.205C179.658 222.99 179.423 222.809 179.233 222.664L179.387 222.089C186.24 221.198 192.456 215.396 197.889 207.57C203.55 199.414 208.553 188.781 212.702 178.268C216.856 167.745 220.173 157.295 222.451 149.48C223.59 145.571 224.471 142.318 225.066 140.042C225.364 138.904 225.591 138.01 225.743 137.399Z" stroke="#202041" stroke-width="2" stroke-miterlimit="10"/>
<path id="middle" d="M45.4329 100.372C49.3707 92.3608 55.9411 87.3226 64.3317 82.8023C85.95 71.1452 109.816 68.2393 130.013 68.0846C161.676 67.8357 179.828 67.6945 195.216 81.3763C210.852 95.2801 213.281 114.249 213.644 117.464C216.182 139.938 204.941 163.528 186.746 173.389C179.588 177.277 173.04 178.098 162.618 178.717C109.178 181.75 80.54 183.378 60.7057 163.245C45.897 148.232 43.1122 128.321 42.6626 124.702C41.8939 118.494 40.9004 109.561 45.4329 100.372Z" stroke="#202041" stroke-width="2" stroke-miterlimit="10"/>
</g>
</svg>
