<svg width="234" height="295" viewBox="0 0 234 295" fill="none" xmlns="http://www.w3.org/2000/svg">
<g id="skatemap">
<path id="outline" d="M211.447 129.554C208.594 141.322 201.333 155.005 191.529 168.838C181.736 182.656 169.452 196.558 156.624 208.759C143.793 220.963 130.446 231.437 118.535 238.418C112.578 241.908 107.007 244.51 102.057 246.023C97.0944 247.54 92.8421 247.937 89.4781 247.121C86.1141 246.305 82.5158 244.005 78.7991 240.383C75.0924 236.771 71.3312 231.906 67.6353 226.075C60.2443 214.415 53.1771 198.99 47.361 182.264C41.5462 165.543 36.9944 147.558 34.6182 130.789C32.2395 114.003 32.0524 98.513 34.9058 86.7458C46.3543 39.5325 95.139 10.7836 143.918 22.6118C192.698 34.4401 222.896 82.3412 211.447 129.554Z" stroke="black" stroke-width="2"/>
<circle id="innermap" cx="124.137" cy="104.189" r="41.4708" transform="rotate(13.6303 124.137 104.189)" stroke="black" stroke-width="2"/>
<path id="deck" d="M93.3611 251.978C82.2178 248.874 45.7811 228.169 36.6089 220.039C27.4368 211.909 3.93372 198.553 7.37313 222.942C10.8125 247.332 152.813 296 171.324 282.756C187.872 270.916 170.75 257.785 152.979 261.85C135.209 265.915 116.291 258.366 93.3611 251.978Z" stroke="#202041" stroke-width="2"/>
<path id="lwheel" d="M44.0322 254.8C44.0322 257.482 43.3999 258.917 42.3958 259.739C41.3399 260.602 39.6307 261 36.9716 261C34.4619 261 31.9433 260.215 30.0752 258.813C28.2574 257.448 27.0753 255.522 27.0334 253.132C27.5888 251.146 28.1806 249.949 29.0992 249.2C30.0282 248.442 31.4727 248 34.0928 248C36.6857 248 39.2212 248.523 41.072 249.643C42.8742 250.733 44.0322 252.38 44.0322 254.8Z" stroke="#202041" stroke-width="2"/>
<path id="rwheel" d="M136.032 288.672C136.032 289.841 135.726 290.7 135.24 291.355C134.746 292.021 134.015 292.547 133.057 292.95C131.109 293.77 128.433 294 125.632 294C122.957 294 120.804 293.365 119.341 292.205C117.912 291.071 117.032 289.351 117.032 286.906C117.032 285.714 117.314 284.795 117.772 284.073C118.233 283.347 118.909 282.762 119.785 282.303C121.565 281.368 124.07 281 126.832 281C129.466 281 131.781 281.759 133.417 283.079C135.032 284.383 136.032 286.267 136.032 288.672Z" stroke="#202041" stroke-width="2"/>
</g>
</svg>
