<?xml version="1.0" encoding="utf-8"?>
<!-- Generator: Adobe Illustrator 22.1.0, SVG Export Plug-In . SVG Version: 6.00 Build 0)  -->
<svg version="1.1" xmlns="http://www.w3.org/2000/svg" xmlns:xlink="http://www.w3.org/1999/xlink" x="0px" y="0px"
	 viewBox="0 0 801.9 451.1" style="enable-background:new 0 0 801.9 451.1;" xml:space="preserve">
<style type="text/css">
	.st0{display:none;}
</style>
<g id="Layer_3" class="st0">
</g>
<g id="Oud">
</g>
<g id="Text_1_">
</g>
<g id="Jisro">
</g>
<g id="Face">
</g>
<g id="Face2">
	<g>
		<g>
			<g>
				<path d="M667.9,389.3c-18-18.1-38.4-33.8-61-45.6c-21.9-11.5-45.1-19.9-66.8-31.9c-12.4-6.9-24.5-14.4-36.2-22.5
					c-1.6-1.1-3.1,1.5-1.5,2.6c26.8,18.5,55.4,33,85.1,46c29.5,12.9,55.6,30.8,78.3,53.6C667.1,392.8,669.3,390.7,667.9,389.3
					L667.9,389.3z"/>
			</g>
		</g>
		<g>
			<g>
				<path d="M314,258.4c-4.2,7.1-9.2,13.7-15.5,19.1c-4.4,3.8-11.2,6.4-14.1,11.7c-6.3,11.4,5.7,25.4,12.1,33.9
					c17.3,23.3,34.7,48.2,58,66.2c19.3,14.9,43.1,22.5,67.4,22.7c28.5,0.2,54.6-12.5,73-33.9c9.2-10.6,16.6-22.8,18.9-36.9
					c2.5-15.3-1.1-30.8-9.1-44c-1-1.7-3.6-0.1-2.6,1.5c7.1,11.9,10.7,25.7,9,39.6c-1.6,13-7.8,24.7-16,34.8
					c-16.7,20.5-39.8,34.1-66.7,35.8c-23,1.4-46.9-4.6-66.1-17.4c-21.9-14.6-38.3-36.4-54-57.2c-5-6.7-10.2-13.3-15-20.2
					c-4.1-5.9-9.7-14.4-7.1-21.9c1.5-4.2,5.9-6.2,9.3-8.6c2.2-1.6,4.3-3.2,6.3-5c5.9-5.3,10.6-11.7,14.6-18.5
					C317.6,258.3,315,256.8,314,258.4L314,258.4z"/>
			</g>
		</g>
		<g>
			<g>
				<path d="M506.2,318.1c-2.8-35.2-2.5-70.6,1-105.8c0.2-1.9-2.8-1.9-3,0c-3.4,35.2-3.8,70.5-1,105.8
					C503.4,320,506.4,320,506.2,318.1L506.2,318.1z"/>
			</g>
		</g>
		<g>
			<g>
				<path d="M309.8,306c6-28.2,8.8-57,8.1-85.9c0-1.9-3-1.9-3,0c0.7,28.6-2,57.1-8,85.1C306.5,307.1,309.4,307.9,309.8,306
					L309.8,306z"/>
			</g>
		</g>
		<g>
			<g>
				<path d="M295.3,280.3c-11.3,2.1-22.4,5-33.1,9c-10.3,3.8-20.2,8.5-30.9,11.3c-9.3,2.5-18.9,3.8-28.2,6.3
					c-11.3,3-22.2,7.1-32.8,11.8c-1.8,0.8-0.2,3.4,1.5,2.6c10.8-4.8,21.9-8.9,33.3-11.9c9.4-2.5,19.1-3.8,28.5-6.4
					c10.4-2.9,20.1-7.5,30.2-11.2c10.5-3.8,21.3-6.6,32.2-8.7C297.9,282.8,297.1,279.9,295.3,280.3L295.3,280.3z"/>
			</g>
		</g>
		<g>
			<g>
				<path d="M294,151.5c2.8,7.1,5,14.3,6.6,21.7c1.4,6.4,1.7,12.9,3.1,19.2c2.9,13.2,10.2,26,19,36.2c3,3.5,6.6,6.4,9.9,9.6
					c5.8,5.6,10.9,11.9,15.8,18.2c6.6,8.5,12.4,18.3,21.8,24c12.7,7.7,29.3,9.2,43.8,8.8c11.1-0.3,22.2-3.5,30.3-11.5
					c8.4-8.3,16.2-16.9,25.1-24.7c11.2-9.7,22.4-20.1,31.8-31.6c6.5-8,9.5-16.3,11.2-26.3c2.9-17.3,5.7-34.5,9.5-51.7
					c0.4-1.9-2.5-2.7-2.9-0.8c-3.2,14.6-5.9,29.2-8.3,44c-1.4,8.5-2.3,17.2-6.4,24.8c-6.6,12.1-18.2,22.2-28.2,31.4
					c-9.1,8.4-18.6,16.1-27,25.2c-6.3,6.8-11.7,12.8-20.8,15.7c-8,2.6-16.3,2.6-24.6,2.1c-7.8-0.5-15.6-1.2-23-3.8
					c-12.2-4.3-18.8-12.6-26.3-22.6c-7.7-10.2-15.8-19.7-25.1-28.5c-10.1-9.4-18.3-23-21.9-36.3c-1.9-6.8-2.2-13.8-3.6-20.7
					c-1.6-8-4-15.9-7-23.5C296.2,148.9,293.3,149.7,294,151.5L294,151.5z"/>
			</g>
		</g>
		<g>
			<g>
				<path d="M335,181.4c11.3,1.9,22.7,1.7,33.9-0.8c5-1.1,10-1.6,15.1-2.1c26.4-2.4,53.1-2.5,79.6-2.8c-0.4-0.8-0.9-1.5-1.3-2.3
					c-18.3,24.8-54,30.7-82.8,28.1c-7-0.6-13.8-1.7-19.8-5.3c-9.5-5.7-18.1-13.1-26.7-20c-1.5-1.2-3.6,0.9-2.1,2.1
					c9,7.2,18,15.2,28.1,20.9c6.7,3.9,14.5,4.8,22.2,5.4c29.5,2.3,65.1-4.5,83.7-29.7c0.7-0.9-0.2-2.3-1.3-2.3
					c-26.3,0.3-52.7,0.5-78.8,2.7c-5.2,0.4-10.4,0.9-15.5,2c-11.1,2.3-22.1,2.9-33.4,1C334,178.2,333.1,181.1,335,181.4L335,181.4z"
					/>
			</g>
		</g>
		<g>
			<g>
				<path d="M458.4,155.1c5.6,0.6,13.1,2.8,14.7,9c1.3,5.1-0.6,10.4-3.4,14.6c-1.1,1.6,1.5,3.1,2.6,1.5c3.5-5.3,5.7-12.7,3-18.8
					c-2.7-6.3-10.7-8.6-16.9-9.3C456.5,151.9,456.5,154.9,458.4,155.1L458.4,155.1z"/>
			</g>
		</g>
		<g>
			<g>
				<path d="M427.4,87.1c-2.6-7.2,14-9.7,18.4-10.4c7.2-1.1,14.6-0.2,20.2,4.8c1.4,1.3,3.6-0.8,2.1-2.1c-7.4-6.6-17.3-7-26.6-4.9
					c-6.1,1.4-20.3,4.1-17,13.4C425.1,89.7,428,88.9,427.4,87.1L427.4,87.1z"/>
			</g>
		</g>
		<g>
			<g>
				<path d="M323.2,95c9.9-6.1,32.8-15.2,40.9-2.2c1,1.6,3.6,0.1,2.6-1.5c-9.3-14.8-33.5-6-45,1.1C320,93.4,321.5,96,323.2,95
					L323.2,95z"/>
			</g>
		</g>
		<g>
			<g>
				<path d="M368.2,68.1c-6.9-5-14.9-6.7-23.3-5.2c-10.3,1.9-20.4,5-30.3,8.2c-2.7,0.9-1.6,5.2,1.2,4.3c8.4-2.7,16.9-5.2,25.5-7.2
					c9-2.1,16.9-1.9,24.6,3.7C368.3,73.7,370.5,69.8,368.2,68.1L368.2,68.1z"/>
			</g>
		</g>
		<g>
			<g>
				<path d="M418.6,67.4c10.8-8.7,24-9.7,37.4-9.3c9.4,0.3,18.7,1.1,28,2.3c2.8,0.4,4.1-4,1.2-4.3c-22.8-3.1-50.5-7.3-69.8,8.1
					C413.2,66,416.4,69.2,418.6,67.4L418.6,67.4z"/>
			</g>
		</g>
		<g>
			<g>
				<path d="M378.9,124.9c5.6-15.1,8.3-30.9,8.2-47c0-1.9-3-1.9-3,0c0.1,15.8-2.6,31.4-8.1,46.2
					C375.4,125.9,378.3,126.7,378.9,124.9L378.9,124.9z"/>
			</g>
		</g>
		<g>
			<g>
				<path d="M404.8,153.1c2-3,4-5.6,7.8-4.9c3.1,0.5,6.1,1,9.3,0.9c1.9,0,1.9-3,0-3c-2.6,0-5.2-0.2-7.7-0.7
					c-1.3-0.2-2.6-0.6-3.9-0.4c-3.7,0.5-6.1,3.7-8,6.6C401.2,153.2,403.8,154.7,404.8,153.1L404.8,153.1z"/>
			</g>
		</g>
		<g>
			<g>
				<path d="M384.5,154.8c-2.8-8.2-11.8-10.2-18.7-5.6c-1.6,1.1-0.1,3.7,1.5,2.6c5.2-3.4,12.1-2.6,14.3,3.8
					C382.3,157.4,385.2,156.7,384.5,154.8L384.5,154.8z"/>
			</g>
		</g>
		<g>
			<g>
				<path d="M326.8,169.8c2.7-4.8,6.3-9,10.8-12.3c1.5-1.1,0-3.7-1.5-2.6c-4.9,3.6-8.9,8-11.9,13.3
					C323.2,169.9,325.8,171.4,326.8,169.8L326.8,169.8z"/>
			</g>
		</g>
		<g>
			<g>
				<path d="M520.5,144.6c7.8-1,14.2-4.7,18.2-11.4c5.6-9.4,9.4-21.2,10.2-32.2c0.3-4.1-0.3-8.2,0-12.3c0.3-4.9,1.4-9.6,1.4-14.5
					c-0.1-6.7-3.8-8.2-10.3-6.5c-1.9,0.5-1.1,3.4,0.8,2.9c3.3-0.9,5.7-1.5,6.4,1.7c0.8,3.8-0.3,8.7-0.8,12.4
					c-0.8,5.8,0,11.6-0.6,17.4c-0.9,9.3-4.1,18.8-8.4,27.1c-3.6,7-8.8,11.2-16.9,12.3C518.6,141.9,518.6,144.9,520.5,144.6
					L520.5,144.6z"/>
			</g>
		</g>
		<g>
			<g>
				<path d="M295.8,149.6c-7.5-1-11.8-4.8-13.7-12c-1.5-5.9-3.5-11.1-6.9-16.1c-7.2-10.6-5.5-21.7-0.7-33.1c0.7-1.8-1.8-3.3-2.6-1.5
					c-5,11.6-7.4,24.2,0.1,35.3c2.1,3.1,4,6.1,5.3,9.7c1.3,3.6,1.8,7.5,3.2,11c2.4,6,8.3,8.9,14.5,9.7
					C296.9,152.8,297.7,149.9,295.8,149.6L295.8,149.6z"/>
			</g>
		</g>
		<g>
			<g>
				<path d="M292.8,123.3c-3.5-23.9-4.8-48-3.8-72.1c0.1-1.9-2.9-1.9-3,0c-1,24.4,0.3,48.8,3.9,72.9
					C290.2,126,293.1,125.2,292.8,123.3L292.8,123.3z"/>
			</g>
		</g>
		<g>
			<g>
				<path d="M528.2,114.4c3.1-12,4.7-24.5,3.6-36.8c-1.2-12.5-3.1-25-4.9-37.4c-0.3-1.9-3.2-1.1-2.9,0.8c1.7,12.2,3.6,24.4,4.8,36.6
					c1.2,12.1-0.4,24.3-3.5,36C524.8,115.5,527.7,116.3,528.2,114.4L528.2,114.4z"/>
			</g>
		</g>
	</g>
</g>
</svg>
