<svg id="Layer_1" data-name="Layer 1" xmlns="http://www.w3.org/2000/svg" viewBox="0 0 343.98 395.53"><defs><style>.cls-1{fill:none;stroke:#000;stroke-miterlimit:10;stroke-width:3px;}</style></defs><path class="cls-1" d="M279.29,191.12S267.14,106.41,366.92,57l2.25-20.47s4.28-11.29,15.44-10.59,13.16,10.24,13.16,10.24v12s24.82-3.16,43.88,1.6l1.76-10.67s-1.06-11.76,15.88-11.4,14.83,11.4,14.83,11.4l.08,21.42s89.46,46.59,76.1,130.59h2.48l3-13.72s2-9.22,13.24-8.34,14.47,7.19,13.32,19.5-14,39.53-32.91,37c0,0-27.35,123.69-64.06,126.86l-.7,2.83s40.1,31.09,22.5,58.23c-5.49,8.47-64.84,6-76.5-12.35s0-31.41,0-31.41l-36.36-2.83s4.59,48.15-40.94,51.25-46.55-18.78-46.55-18.78-8.15-41.64,31.73-48.7c0,0-22.24-8.6-27.88-31.12s-22.95-58.18-24-71.24-7.88-26.12-7.88-26.12-30.59,4.24-34.83-30.35c0,0-9.53-24.29,9.53-29.26s21.88,28.56,21.88,28.56Z" transform="translate(-240.12 -24.41)"/><path class="cls-1" d="M301.32,171.71c5.43-11.91,14.49-19.4,26.06-26.12,29.81-17.33,62.72-21.65,90.57-21.88,43.66-.37,68.69-.58,89.91,19.76,21.56,20.67,24.91,48.87,25.41,53.65,3.5,33.41-12,68.48-37.09,83.14-9.87,5.78-18.9,7-33.27,7.92-73.69,4.51-113.18,6.93-140.53-23-20.42-22.32-24.26-51.92-24.88-57.3C296.44,198.65,295.07,185.37,301.32,171.71Z" transform="translate(-240.12 -24.41)"/><path class="cls-1" d="M307.53,175.24" transform="translate(-240.12 -24.41)"/></svg>